<svg width="20" height="20" viewBox="0 0 20 20" fill="none" xmlns="http://www.w3.org/2000/svg">
<path fill-rule="evenodd" clip-rule="evenodd" d="M1.66667 4.16659C1.66667 3.70635 2.03977 3.33325 2.50001 3.33325H8.33334C8.55435 3.33325 8.76631 3.42105 8.92259 3.57733L10.3452 4.99992H17.5C17.9602 4.99992 18.3333 5.37301 18.3333 5.83325V14.1666C18.3333 15.5473 17.2141 16.6666 15.8333 16.6666H4.16667C2.78596 16.6666 1.66667 15.5473 1.66667 14.1666V4.16659ZM3.33334 4.99992V14.1666C3.33334 14.6268 3.70643 14.9999 4.16667 14.9999H15.8333C16.2936 14.9999 16.6667 14.6268 16.6667 14.1666V6.66659H10C9.77899 6.66659 9.56703 6.57879 9.41075 6.42251L7.98816 4.99992H3.33334Z" fill="#6266EB"/>
<path fill-rule="evenodd" clip-rule="evenodd" d="M10 8.33325C10.4602 8.33325 10.8333 8.70635 10.8333 9.16659V12.4999C10.8333 12.9602 10.4602 13.3333 10 13.3333C9.53977 13.3333 9.16667 12.9602 9.16667 12.4999V9.16659C9.16667 8.70635 9.53977 8.33325 10 8.33325Z" fill="#6266EB"/>
<path fill-rule="evenodd" clip-rule="evenodd" d="M7.5 10.8333C7.5 10.3731 7.8731 10 8.33333 10H11.6667C12.1269 10 12.5 10.3731 12.5 10.8333C12.5 11.2936 12.1269 11.6667 11.6667 11.6667H8.33333C7.8731 11.6667 7.5 11.2936 7.5 10.8333Z" fill="#6266EB"/>
</svg>
