<svg width="20" height="20" viewBox="0 0 20 20" fill="none" xmlns="http://www.w3.org/2000/svg">
<path fill-rule="evenodd" clip-rule="evenodd" d="M3.33334 2.50008C3.33334 2.03984 3.70644 1.66675 4.16668 1.66675H11.6667C11.8877 1.66675 12.0997 1.75455 12.2559 1.91083L16.4226 6.07749C16.5789 6.23377 16.6667 6.44573 16.6667 6.66675V15.8334C16.6667 17.2141 15.5474 18.3334 14.1667 18.3334H5.83334C4.45263 18.3334 3.33334 17.2141 3.33334 15.8334V2.50008ZM5.00001 3.33341V15.8334C5.00001 16.2937 5.37311 16.6667 5.83334 16.6667H14.1667C14.6269 16.6667 15 16.2937 15 15.8334V7.01193L11.3215 3.33341H5.00001Z" fill="#6266EB"/>
<path fill-rule="evenodd" clip-rule="evenodd" d="M10.5893 11.0773C10.2638 10.7519 9.73619 10.7519 9.41075 11.0773L4.41076 16.0773C4.08532 16.4028 4.08532 16.9304 4.41076 17.2558C4.73619 17.5813 5.26383 17.5813 5.58927 17.2558L10 12.8451L14.4108 17.2558C14.7362 17.5813 15.2638 17.5813 15.5893 17.2558C15.9147 16.9304 15.9147 16.4028 15.5893 16.0773L10.5893 11.0773Z" fill="#6266EB"/>
<path d="M6.66666 8.75C6.66666 9.44036 7.2263 10 7.91666 10C8.60701 10 9.16666 9.44036 9.16666 8.75C9.16666 8.05964 8.60701 7.5 7.91666 7.5C7.2263 7.5 6.66666 8.05964 6.66666 8.75Z" fill="#6266EB"/>
<path fill-rule="evenodd" clip-rule="evenodd" d="M10 7.5V2.5H11.6667V6.66667H15.8333V8.33333H10.8333C10.3731 8.33333 10 7.96024 10 7.5Z" fill="#6266EB"/>
</svg>
